<svg width="0" height="0" style="position:absolute"><symbol viewBox="0 0 46.002 14.725" id="arrow-left" xmlns="http://www.w3.org/2000/svg"><path d="M.292 8.073l6.37 6.36a.996.996 0 101.41-1.41l-4.66-4.66h42.59v-2H3.412l4.66-4.66a.996.996 0 10-1.41-1.41l-6.37 6.36c-.39.39-.39 1.03 0 1.42z"/></symbol><symbol viewBox="0 0 46.002 14.725" id="arrow-right" xmlns="http://www.w3.org/2000/svg"><path d="M45.71 8.073l-6.37 6.36a.996.996 0 11-1.41-1.41l4.66-4.66H0v-2h42.59l-4.66-4.66a.996.996 0 111.41-1.41l6.37 6.36c.39.39.39 1.03 0 1.42z"/></symbol><symbol viewBox="0 0 18 18" id="coins" xmlns="http://www.w3.org/2000/svg"><path d="M6.75 3c0-1.657 2.518-3 5.625-3S18 1.343 18 3s-2.518 3-5.625 3S6.75 4.657 6.75 3zm5.625 4.5c-.77 0-1.5-.086-2.168-.236C9.187 6.499 7.517 6 5.625 6 2.518 6 0 7.343 0 9s2.518 3 5.625 3 5.625-1.343 5.625-3c0-.022-.005-.043-.006-.065h.006V10.5c0 1.657-2.518 3-5.625 3S0 12.157 0 10.5V12c0 1.657 2.518 3 5.625 3s5.625-1.343 5.625-3v1.5c0 1.657-2.518 3-5.625 3S0 15.157 0 13.5V15c0 1.657 2.518 3 5.625 3s5.625-1.343 5.625-3v-.06c.364.039.74.06 1.125.06C15.482 15 18 13.657 18 12v-1.5c0 1.59-2.319 2.887-5.25 2.99v-1.5C15.681 11.887 18 10.59 18 9V7.5c0 1.59-2.319 2.887-5.25 2.99v-1.5C15.681 8.887 18 7.59 18 6V4.5c0 1.657-2.518 3-5.625 3z"/></symbol><symbol viewBox="0 0 21.667 13.678" id="email" xmlns="http://www.w3.org/2000/svg"><path d="M0 .887v11.89l6.758-6.683L0 .887zM1.013 0l9.825 7.57L20.896 0H1.013zm13.939 6.128l6.715 6.45V1.073l-6.715 5.054zm-1.065.802l-2.673 2.012a.63.63 0 01-.765-.005L7.81 6.904.961 13.678h19.951L13.887 6.93z"/></symbol><symbol viewBox="0 0 24 26.794" id="play" xmlns="http://www.w3.org/2000/svg"><path d="M22.5 10.799c2 1.154 2 4.041 0 5.196l-18 10.392c-2 1.155-4.5-.289-4.5-2.598V3.004C0 .695 2.5-.748 4.5.406l18 10.393z"/></symbol><symbol viewBox="0 0 16.536 17.995" id="tags" xmlns="http://www.w3.org/2000/svg"><path d="M15.93 6.763L9.169 0 2.96.673l.162 1.49 5.493-.594 6.255 6.254a.571.571 0 01-.009.813l-.721.746-6.53-6.53-6.853.936L0 10.63l6.76 6.76c.39.39.91.605 1.462.605s1.073-.215 1.472-.614l4.683-4.837a2.069 2.069 0 00.569-1.838l.985-1.017a2.072 2.072 0 000-2.926zm-12.145.732a.75.75 0 110-1.5.75.75 0 010 1.5z"/></symbol><symbol viewBox="0 0 21.667 17.839" id="telephone" xmlns="http://www.w3.org/2000/svg"><path d="M4.44 7.114H.021C.022.845 5.489 0 10.836 0c5.348 0 10.815.845 10.815 7.114H17.2c-.309-4.047-2.596-3.82-6.247-3.856-3.62-.035-6.17-.268-6.513 3.856zM2.23 9.129c1.084 0 1.986.065 2.187-1.002a2.72 2.72 0 00.043-.5H0C0 9.215.998 9.13 2.23 9.13zm14.998-1.501h-.042c0 .191.017.356.047.5.212.983 1.113.922 2.193.922 1.238 0 2.24.081 2.24-1.422h-4.438zm-2.175-.53c1.056 1.097 4.511 5.766 4.636 6.316v3.792a.633.633 0 01-.632.633H2.2a.633.633 0 01-.633-.633l-.001-3.773c.125-.566 3.58-5.237 4.637-6.335v-1.18c0-.283.325-.3.726-.3h.655c.401 0 .726.017.726.3v.964h4.636v-.965c0-.282.325-.3.726-.3h.655c.401 0 .726.018.726.3v1.18zM8.68 13.326a.614.614 0 10-1.228 0 .614.614 0 001.228 0zm0-2.107a.614.614 0 10-1.228 0 .614.614 0 001.228 0zm0-2.107a.614.614 0 10-1.228 0 .614.614 0 001.228 0zm2.529 4.214a.614.614 0 10-1.229 0 .614.614 0 001.229 0zm0-2.107a.614.614 0 10-1.229 0 .614.614 0 001.229 0zm0-2.107a.614.614 0 10-1.229 0 .614.614 0 001.229 0zm2.544 4.214a.615.615 0 10-1.229 0 .615.615 0 001.23 0zm0-2.107a.615.615 0 10-1.23 0 .615.615 0 001.23 0zm0-2.107a.615.615 0 10-1.23 0 .615.615 0 001.23 0z"/></symbol></svg>