<svg width="826" height="573" viewBox="0 0 826 573" fill="none" xmlns="http://www.w3.org/2000/svg">
<g opacity="0.3">
<path d="M515 442H593.392L681 345H602.561L515 442Z" fill="#3B4C57"/>
<path d="M193 361H271.864L360 264H281.089L193 361Z" fill="#3B4C57"/>
<path d="M0 219H78.3915L166 122H87.5615L0 219Z" fill="#3B4C57"/>
<path d="M335 182H413.864L502 85H423.089L335 182Z" fill="#3B4C57"/>
<path d="M335 493H413.547L474 424H395.406L335 493Z" fill="#B09A5F"/>
<path d="M200.104 208L33 392H111.849L111.896 391.953V392L279 208H200.151L200.104 208.047V208Z" fill="#3B4C57"/>
<path d="M480.349 180L123 573H201.698L559 180H480.349Z" fill="#3B4C57"/>
<path d="M923.349 155L566 550H644.698L1002 155H923.349Z" fill="#3B4C57"/>
<path d="M782.169 0L424 394H502.878L861 0H782.169Z" fill="#3B4C57"/>
</g>
</svg>
